<svg width="91" height="87" viewBox="0 0 91 87" fill="none" xmlns="http://www.w3.org/2000/svg">
<g filter="url(#filter0_dd_1_326)">
<path d="M39.7177 56.5733C39.9036 56.7592 40.1361 56.8523 40.3687 56.8523C40.6013 56.8523 40.8338 56.7592 41.0197 56.5733L56.5043 41.0887C60.8754 36.7176 60.8754 29.6496 56.5043 25.325C52.1799 20.9539 45.0652 21.0003 40.6477 25.3714L40.4154 25.604L40.0898 25.2783C35.7187 20.9072 28.6507 20.9072 24.3262 25.2783C19.955 29.6495 19.955 36.7174 24.2798 41.0885L39.7177 56.5733ZM25.6281 26.6271C27.4416 24.8135 29.813 23.93 32.1847 23.93C34.5562 23.93 36.9743 24.86 38.7878 26.6735L39.8108 27.6502C39.9967 27.836 40.2292 27.9291 40.4618 27.9291C40.6944 27.9291 40.9269 27.836 41.1128 27.6502L41.9964 26.7202C45.6697 23.0932 51.6219 23.0469 55.249 26.6738C58.876 30.3009 58.876 36.2064 55.249 39.8334L40.3688 54.6206L25.6282 39.7869C22.0012 36.1599 22.0012 30.2544 25.6282 26.6273L25.6281 26.6271Z" fill="white"/>
<path d="M39.5407 56.7498L39.5409 56.7501C39.7722 56.9813 40.0677 57.1023 40.3687 57.1023C40.6697 57.1023 40.9652 56.9813 41.1965 56.7501L56.6811 41.2655C61.149 36.7975 61.1507 29.5712 56.681 25.1482C52.2564 20.6768 44.984 20.729 40.4718 25.1937L40.4708 25.1948L40.4153 25.2503L40.2666 25.1016C35.7985 20.6335 28.5718 20.632 24.1489 25.1021C19.6808 29.5707 19.6809 36.7959 24.1021 41.2643L24.1027 41.265L39.5407 56.7498ZM40.37 54.267L25.8056 39.6107L25.805 39.6102C22.2756 36.0808 22.2756 30.3335 25.805 26.8041L25.8569 26.7522C27.6139 25.0233 29.8978 24.18 32.1847 24.18C34.492 24.18 36.8459 25.0851 38.611 26.8503L38.611 26.8503L38.6152 26.8543L39.6362 27.8291C39.8671 28.0589 40.1618 28.1791 40.4618 28.1791C40.7627 28.1791 41.0583 28.0582 41.2896 27.8269L41.2896 27.827L41.294 27.8224L42.1748 26.8953C45.7533 23.365 51.5459 23.3244 55.0722 26.8506C58.6016 30.38 58.6016 36.1273 55.0722 39.6567L40.37 54.267Z" stroke="white" stroke-width="0.5"/>
</g>
<defs>
<filter id="filter0_dd_1_326" x="0.541992" y="0.5" width="89.7407" height="85.8523" filterUnits="userSpaceOnUse" color-interpolation-filters="sRGB">
<feFlood flood-opacity="0" result="BackgroundImageFix"/>
<feColorMatrix in="SourceAlpha" type="matrix" values="0 0 0 0 0 0 0 0 0 0 0 0 0 0 0 0 0 0 127 0" result="hardAlpha"/>
<feOffset dx="5" dy="4"/>
<feGaussianBlur stdDeviation="12.5"/>
<feComposite in2="hardAlpha" operator="out"/>
<feColorMatrix type="matrix" values="0 0 0 0 0.976471 0 0 0 0 0.564706 0 0 0 0 0.207843 0 0 0 0.5 0"/>
<feBlend mode="normal" in2="BackgroundImageFix" result="effect1_dropShadow_1_326"/>
<feColorMatrix in="SourceAlpha" type="matrix" values="0 0 0 0 0 0 0 0 0 0 0 0 0 0 0 0 0 0 127 0" result="hardAlpha"/>
<feOffset dy="4"/>
<feGaussianBlur stdDeviation="2"/>
<feComposite in2="hardAlpha" operator="out"/>
<feColorMatrix type="matrix" values="0 0 0 0 0 0 0 0 0 0 0 0 0 0 0 0 0 0 0.25 0"/>
<feBlend mode="normal" in2="effect1_dropShadow_1_326" result="effect2_dropShadow_1_326"/>
<feBlend mode="normal" in="SourceGraphic" in2="effect2_dropShadow_1_326" result="shape"/>
</filter>
</defs>
</svg>
