<svg width="36" height="17" viewBox="0 0 36 17" fill="none" xmlns="http://www.w3.org/2000/svg">
<path d="M3.8971 13.0438V13.0438V15.0629C3.8971 15.8502 3.25202 16.4953 2.46466 16.4953C1.67732 16.4953 1.03224 15.8502 1.03223 15.0629C1.03223 15.0629 1.03223 15.0629 1.03223 15.0629L1.03238 13.0018V13.0018C1.03238 6.4909 6.26536 1.1792 12.7287 1.1792H23.3291C29.7925 1.1792 35.0257 6.49076 35.0254 13.0018V15.0208C35.0254 15.8081 34.3803 16.4532 33.593 16.4532C32.8056 16.4532 32.1606 15.8081 32.1606 15.0208V13.0018C32.1606 8.07214 28.2244 4.04438 23.3294 4.04438H12.7291C7.83258 4.04438 3.8974 8.07293 3.8971 13.0438Z" fill="white" stroke="black" stroke-width="0.5"/>
</svg>
