<svg width="36" height="35" viewBox="0 0 36 35" fill="none" xmlns="http://www.w3.org/2000/svg">
<path d="M14.3296 0.000136359C17.778 -0.000834747 21.1081 1.34123 23.6932 3.77412C26.2786 6.2072 27.9415 9.56334 28.3691 13.2117C28.7967 16.8599 27.9597 20.5492 26.0154 23.5859L34.7198 32.8669V32.8671C34.9258 33.0849 35.0417 33.3813 35.0417 33.6906C35.0417 34.0002 34.9258 34.2966 34.7198 34.5144C34.5321 34.7137 34.2826 34.8332 34.0182 34.8501C33.7537 34.8671 33.4925 34.781 33.2835 34.6074L33.1747 34.5146L24.6446 25.4071C22.4957 27.8465 19.647 29.4546 16.5465 29.9781C13.446 30.5015 10.2711 29.9106 7.52045 28.2986C4.76991 26.6863 2.60027 24.1444 1.35346 21.0729C0.1066 18.0015 -0.146783 14.575 0.633067 11.3339C1.41315 8.0921 3.18229 5.21905 5.66185 3.16727C8.14164 1.1153 11.1909 0.000994413 14.3294 0L14.3296 0.000136359ZM14.3296 2.32035C11.1554 2.32035 8.11134 3.66486 5.86663 6.05816C3.62203 8.45146 2.36106 11.6974 2.36106 15.0825C2.36106 18.467 3.62203 21.7127 5.86663 24.1061C8.11123 26.4994 11.1554 27.8439 14.3296 27.8439C17.5038 27.8439 20.5479 26.4994 22.7926 24.1061C25.0372 21.7128 26.2982 18.4669 26.2982 15.0825C26.2982 11.6977 25.0372 8.45159 22.7926 6.05816C20.548 3.66486 17.5038 2.32035 14.3296 2.32035ZM13.2415 4.64081C13.6304 4.64081 13.9895 4.86174 14.1839 5.2208C14.3781 5.57987 14.3781 6.02199 14.1839 6.38103C13.9895 6.73985 13.6304 6.96102 13.2415 6.96102C11.5101 6.96102 9.84958 7.69447 8.62528 8.99988C7.40097 10.3053 6.7131 12.0758 6.7131 13.9219C6.7131 14.3363 6.5059 14.7194 6.16915 14.9265C5.8324 15.1338 5.41774 15.1338 5.08101 14.9265C4.74448 14.7194 4.53705 14.3363 4.53705 13.9219C4.53705 11.4604 5.45417 9.09963 7.0865 7.35941C8.71907 5.61869 10.9329 4.64106 13.2413 4.64106L13.2415 4.64081Z" fill="#F99035"/>
</svg>
